<svg width="20" height="25" viewBox="0 0 20 25" fill="none" xmlns="http://www.w3.org/2000/svg">
<path d="M19.8477 20.38V25H1.33273V21.325L10.7827 12.4C11.7861 11.4433 12.4627 10.6267 12.8127 9.95C13.1627 9.25 13.3377 8.56167 13.3377 7.885C13.3377 6.905 12.9994 6.15833 12.3227 5.645C11.6694 5.10833 10.7011 4.84 9.41773 4.84C8.3444 4.84 7.37607 5.05 6.51273 5.47C5.6494 5.86667 4.92607 6.47333 4.34273 7.29L0.212734 4.63C1.1694 3.20667 2.48773 2.09833 4.16773 1.305C5.84773 0.488333 7.77273 0.0799996 9.94273 0.0799996C11.7627 0.0799996 13.3494 0.383332 14.7027 0.989998C16.0794 1.57333 17.1411 2.41333 17.8877 3.51C18.6577 4.58333 19.0427 5.855 19.0427 7.325C19.0427 8.655 18.7627 9.90333 18.2027 11.07C17.6427 12.2367 16.5577 13.5667 14.9477 15.06L9.31273 20.38H19.8477Z" fill="white"/>
</svg>
