<svg width="20" height="26" viewBox="0 0 20 26" fill="none" xmlns="http://www.w3.org/2000/svg">
<path d="M12.9536 10.475C15.1002 10.825 16.7452 11.63 17.8886 12.89C19.0319 14.1267 19.6036 15.6667 19.6036 17.51C19.6036 18.9333 19.2302 20.2517 18.4836 21.465C17.7369 22.655 16.5936 23.6117 15.0536 24.335C13.5369 25.0583 11.6702 25.42 9.45355 25.42C7.72689 25.42 6.02355 25.1983 4.34355 24.755C2.68689 24.2883 1.27522 23.635 0.108555 22.795L2.31355 18.455C3.24689 19.155 4.32022 19.7033 5.53356 20.1C6.77022 20.4733 8.03022 20.66 9.31356 20.66C10.7369 20.66 11.8569 20.3917 12.6736 19.855C13.4902 19.295 13.8986 18.5133 13.8986 17.51C13.8986 15.5033 12.3702 14.5 9.31356 14.5H6.72355V10.755L11.7636 5.05H1.33355V0.499998H18.4836V4.175L12.9536 10.475Z" fill="white"/>
</svg>
